<?xml version="1.0" encoding="iso-8859-1"?>
<!-- Generator: Adobe Illustrator 19.0.0, SVG Export Plug-In . SVG Version: 6.00 Build 0)  -->
<svg version="1.1" id="Layer_1" xmlns="http://www.w3.org/2000/svg" xmlns:xlink="http://www.w3.org/1999/xlink" x="0px" y="0px"
	 viewBox="0 0 512 512" style="enable-background:new 0 0 512 512;" xml:space="preserve">
<g>
	<polygon style="fill:#FF2C47;" points="290.144,290.143 290.144,10.667 10.667,290.143 221.858,290.143 	"/>
	<polygon style="fill:#FF9600;" points="290.144,10.667 290.144,290.143 221.858,290.143 10.667,290.143 221.858,501.332 
		501.333,221.856 	"/>
</g>
<g>
	<path style="fill:#000003;" d="M508.905,229.369c0.236-0.237,0.461-0.484,0.671-0.742c0.063-0.074,0.112-0.154,0.173-0.228
		c0.155-0.201,0.31-0.4,0.45-0.61c0.046-0.067,0.083-0.138,0.125-0.205c0.146-0.226,0.288-0.455,0.415-0.692
		c0.025-0.046,0.044-0.094,0.069-0.141c0.135-0.262,0.265-0.529,0.379-0.804c0.013-0.031,0.023-0.063,0.035-0.094
		c0.116-0.29,0.225-0.585,0.317-0.886c0.011-0.035,0.017-0.071,0.027-0.107c0.087-0.297,0.166-0.596,0.227-0.902
		c0.019-0.089,0.025-0.179,0.042-0.268c0.044-0.254,0.087-0.508,0.114-0.767c0.035-0.352,0.052-0.707,0.052-1.065
		s-0.017-0.713-0.052-1.065c-0.027-0.26-0.07-0.513-0.114-0.767c-0.017-0.089-0.022-0.179-0.042-0.268
		c-0.061-0.306-0.14-0.606-0.227-0.902c-0.011-0.035-0.017-0.07-0.027-0.107c-0.092-0.301-0.201-0.595-0.317-0.884
		c-0.013-0.032-0.022-0.065-0.035-0.096c-0.112-0.273-0.242-0.538-0.377-0.798c-0.025-0.049-0.046-0.099-0.07-0.147
		c-0.125-0.234-0.264-0.458-0.406-0.681c-0.046-0.071-0.085-0.147-0.133-0.218c-0.133-0.201-0.284-0.39-0.429-0.58
		c-0.067-0.085-0.125-0.176-0.194-0.259c-0.173-0.21-0.361-0.409-0.548-0.605c-0.052-0.054-0.098-0.113-0.15-0.166L297.686,3.124
		c-0.146-0.146-0.302-0.274-0.452-0.41c-0.107-0.095-0.208-0.196-0.319-0.286c-0.169-0.14-0.346-0.263-0.521-0.39
		c-0.107-0.078-0.208-0.16-0.319-0.234c-0.177-0.118-0.361-0.223-0.542-0.331c-0.118-0.069-0.234-0.144-0.356-0.209
		c-0.173-0.094-0.352-0.173-0.531-0.256c-0.138-0.064-0.275-0.134-0.417-0.194c-0.166-0.069-0.335-0.125-0.507-0.185
		c-0.16-0.058-0.319-0.119-0.481-0.169c-0.164-0.049-0.33-0.085-0.494-0.127c-0.173-0.044-0.346-0.093-0.521-0.128
		c-0.181-0.036-0.363-0.057-0.544-0.083c-0.164-0.023-0.325-0.054-0.492-0.07c-0.298-0.029-0.598-0.042-0.898-0.045
		c-0.05-0.001-0.1-0.007-0.153-0.007c-0.077,0-0.15,0.01-0.227,0.012c-0.273,0.005-0.546,0.015-0.817,0.042
		c-0.194,0.019-0.381,0.053-0.571,0.082c-0.153,0.023-0.306,0.041-0.461,0.07c-0.206,0.041-0.409,0.097-0.61,0.149
		c-0.133,0.035-0.267,0.063-0.398,0.102c-0.201,0.061-0.394,0.133-0.588,0.206c-0.133,0.048-0.267,0.091-0.398,0.145
		c-0.186,0.077-0.365,0.166-0.546,0.253c-0.133,0.064-0.269,0.123-0.4,0.193c-0.179,0.095-0.35,0.204-0.523,0.308
		c-0.125,0.076-0.252,0.146-0.373,0.227c-0.201,0.133-0.391,0.281-0.581,0.427c-0.085,0.066-0.175,0.125-0.258,0.193
		c-0.282,0.23-0.553,0.474-0.809,0.731L3.125,282.6c-0.011,0.01-0.019,0.02-0.027,0.03c-0.236,0.237-0.461,0.484-0.673,0.742
		c-0.061,0.074-0.111,0.153-0.169,0.226c-0.156,0.201-0.313,0.401-0.454,0.613c-0.044,0.064-0.079,0.133-0.121,0.198
		c-0.146,0.228-0.289,0.459-0.419,0.699c-0.022,0.046-0.044,0.094-0.067,0.141c-0.135,0.262-0.267,0.529-0.379,0.804
		c-0.015,0.031-0.023,0.063-0.035,0.094c-0.116,0.29-0.225,0.585-0.317,0.886c-0.011,0.035-0.017,0.07-0.027,0.106
		c-0.087,0.297-0.166,0.597-0.227,0.905c-0.017,0.083-0.025,0.169-0.039,0.253c-0.046,0.258-0.09,0.516-0.116,0.781
		C0.019,289.43,0,289.785,0,290.143s0.019,0.713,0.054,1.065c0.027,0.265,0.07,0.523,0.116,0.781
		c0.015,0.084,0.022,0.17,0.039,0.253c0.061,0.307,0.14,0.607,0.227,0.905c0.011,0.034,0.017,0.07,0.027,0.106
		c0.092,0.301,0.201,0.595,0.317,0.884c0.013,0.032,0.021,0.065,0.035,0.096c0.112,0.273,0.242,0.538,0.377,0.798
		c0.026,0.049,0.044,0.099,0.07,0.147c0.125,0.236,0.267,0.462,0.411,0.686c0.044,0.069,0.081,0.143,0.127,0.212
		c0.135,0.202,0.286,0.393,0.433,0.583c0.065,0.084,0.123,0.174,0.192,0.256c0.173,0.21,0.358,0.409,0.548,0.605
		c0.052,0.054,0.096,0.113,0.15,0.166l192.981,192.981h-46.774c-5.891,0-10.667,4.775-10.667,10.667s4.776,10.667,10.667,10.667
		h213.333c5.891,0,10.667-4.775,10.667-10.667s-4.776-10.667-10.667-10.667H247.611l261.266-261.267
		C508.885,229.389,508.894,229.378,508.905,229.369z M366.943,232.523h108.639L221.858,486.247L36.42,300.809h174.772v94.555
		c0,5.891,4.778,10.667,10.667,10.667c5.891,0,10.667-4.775,10.667-10.667v-94.555h57.618c5.889,0,10.667-4.775,10.667-10.667
		V36.417L475.582,211.19H366.943c-5.889,0-10.667,4.776-10.667,10.667S361.053,232.523,366.943,232.523z M36.42,279.476
		L279.475,36.421v243.055H36.42z"/>
	<path style="fill:#000003;" d="M332.809,211.19h-6.4c-5.889,0-10.667,4.776-10.667,10.667s4.778,10.667,10.667,10.667h6.4
		c5.891,0,10.667-4.775,10.667-10.667S338.7,211.19,332.809,211.19z"/>
	<path style="fill:#000003;" d="M221.858,418.829c-5.889,0-10.667,4.775-10.667,10.667v6.402c0,5.891,4.778,10.667,10.667,10.667
		c5.891,0,10.667-4.775,10.667-10.667v-6.402C232.525,423.604,227.75,418.829,221.858,418.829z"/>
</g>
<g>
</g>
<g>
</g>
<g>
</g>
<g>
</g>
<g>
</g>
<g>
</g>
<g>
</g>
<g>
</g>
<g>
</g>
<g>
</g>
<g>
</g>
<g>
</g>
<g>
</g>
<g>
</g>
<g>
</g>
</svg>
